<svg data-name="Layer 1" xmlns="http://www.w3.org/2000/svg" viewBox="0 0 799 765">
  <circle cx="110.54" cy="648.96" r="94.04" fill="#4e5468"/>
  <path data-name="Dark Blue" d="M353.4 552.74L267 741.63h101.89c8.69 0 17.21-.25 25.67-.59V549.1a230.23 230.23 0 0 1-41.16 3.64z" fill="#1a5493"/>
  <path data-name="Light Blue" d="M478.14 508.07c-22.43 21.44-50.35 35-83.58 41V741q104.35-4.21 186.33-43a354.66 354.66 0 0 0 78.71-50.64L497.36 485.11a138.53 138.53 0 0 1-19.22 22.96z" fill="#4b99e8"/>
  <path data-name="Sky Blue" d="M723.59 573.27q50.8-81.09 50.82-190.95H524.84q0 62.12-27.48 102.79L659.6 647.36a321.15 321.15 0 0 0 63.99-74.09z" fill="#b8e8f5"/>
  <path d="M524.84 382.32h249.57q0-109.85-50.82-190.95a321 321 0 0 0-64-74.09L497.36 279.52q27.39 40.74 27.48 102.8z" fill="#fab366"/>
  <path d="M478.14 256.56a139 139 0 0 1 19.22 23L659.6 117.28a355 355 0 0 0-78.71-50.65Q499 27.74 394.56 23.59v191.94c33.23 6 61.15 19.59 83.58 41.03z" fill="#f69277"/>
  <path d="M251.76 211.9H353.4a230.25 230.25 0 0 1 41.16 3.63V23.59c-8.46-.34-17-.59-25.67-.59H35.24l189.28 189.28h27.24z" fill="#f65f4e"/>
  <path fill="#c12f80" d="M14.71 23l113.67 189.28h96.14L35.24 23H14.71z"/>
</svg>