<svg id="Layer_1" data-name="Layer 1" xmlns="http://www.w3.org/2000/svg" viewBox="0 0 799 765"><title>DSM Logo</title><circle id="Gary" cx="110.54" cy="648.96" r="94.04" fill="#4e5468"/><path id="Dark_Blue" data-name="Dark Blue" d="M353.4,552.74,267,741.63H368.89c8.69,0,17.21-.25,25.67-.59V549.1A230.23,230.23,0,0,1,353.4,552.74Z" fill="#1a5493"/><path id="Light_Blue" data-name="Light Blue" d="M478.14,508.07c-22.43,21.44-50.35,35-83.58,41V741q104.35-4.21,186.33-43a354.66,354.66,0,0,0,78.71-50.64L497.36,485.11A138.53,138.53,0,0,1,478.14,508.07Z" fill="#4b99e8"/><path id="Sky_Blue" data-name="Sky Blue" d="M723.59,573.27q50.8-81.09,50.82-190.95H524.84q0,62.12-27.48,102.79L659.6,647.36A321.15,321.15,0,0,0,723.59,573.27Z" fill="#b8e8f5"/><path id="Orange" d="M524.84,382.32H774.41q0-109.85-50.82-190.95a321,321,0,0,0-64-74.09L497.36,279.52Q524.75,320.26,524.84,382.32Z" fill="#fab366"/><path id="Peach" d="M478.14,256.56a139,139,0,0,1,19.22,23L659.6,117.28a355,355,0,0,0-78.71-50.65Q499,27.74,394.56,23.59V215.53C427.79,221.53,455.71,235.12,478.14,256.56Z" fill="#f69277"/><path id="Red" d="M251.76,211.9H353.4a230.25,230.25,0,0,1,41.16,3.63V23.59c-8.46-.34-17-.59-25.67-.59H35.24L224.52,212.28h27.24Z" fill="#f65f4e"/><polygon id="Purple" points="14.71 23 128.38 212.28 224.52 212.28 35.24 23 14.71 23" fill="#c12f80"/></svg>